<svg width="160" height="160" viewBox="0 0 160 160" fill="none" xmlns="http://www.w3.org/2000/svg">
<rect width="160" height="160" rx="80" fill="#333333"/>
<path fill-rule="evenodd" clip-rule="evenodd" d="M80 0C35.8172 0 0 35.8172 0 80C0 124.183 35.8172 160 80 160C124.183 160 160 124.183 160 80C160 35.8172 124.183 0 80 0ZM54.0292 71.3188C54.1039 78.3068 52.1123 84.7841 50.0429 89.5652C49.5469 90.6931 49.2764 91.5575 49.0293 92.3469C48.6642 93.5137 48.3502 94.5167 47.4352 95.9649H36.8548C43.2186 86.4743 43.371 76.4672 43.371 71.8324H15V63.7395H54.0292V71.3188ZM98.9711 96.1888H60.1192V63.7395H98.9711V96.1888ZM144 83.8255C144 91.8467 138.402 96.2605 130.877 96.2605H118.912C110.681 96.2605 105.148 92.0677 105.148 83.9001V83.8995C105.148 81.3224 105.148 78.1602 105.341 75.5862C105.855 69.1836 110.423 63.7395 117.947 63.7395H130.877C138.402 63.7395 144 68.5953 144 75.8789V83.8255ZM129.01 72.2744H120.2C116.855 72.2744 114.347 72.9344 113.637 77.7185C113.382 79.779 113.444 82.1352 113.637 83.5328C114.089 86.4027 115.57 88.3139 120.2 88.3139H128.304C131.263 88.3139 135.959 87.1373 135.959 82.1352V79.1161C135.959 74.4066 133.644 72.2744 129.01 72.2744ZM69 72.0002H91V88.0002H69V72.0002Z" fill="#36D97D"/>
</svg>
