<svg width="30" height="31" viewBox="0 0 30 31" fill="none" xmlns="http://www.w3.org/2000/svg">
<rect width="30" height="30" rx="15" transform="matrix(1 0 0 -1 0 30.4102)" fill="#333333"/>
<path d="M14.2929 24.7071C14.6834 25.0976 15.3166 25.0976 15.7071 24.7071L22.0711 18.3431C22.4616 17.9526 22.4616 17.3195 22.0711 16.9289C21.6805 16.5384 21.0474 16.5384 20.6569 16.9289L15 22.5858L9.34315 16.9289C8.95262 16.5384 8.31946 16.5384 7.92893 16.9289C7.53841 17.3195 7.53841 17.9526 7.92893 18.3431L14.2929 24.7071ZM14 6L14 24L16 24L16 6L14 6Z" fill="white"/>
</svg>
