<svg width="30" height="31" viewBox="0 0 30 31" fill="none" xmlns="http://www.w3.org/2000/svg">
<rect width="30" height="30" rx="15" transform="matrix(1 0 0 -1 0 30.4102)" fill="#333333"/>
<path d="M14.4697 22.5303C14.7626 22.8232 15.2374 22.8232 15.5303 22.5303L20.3033 17.7574C20.5962 17.4645 20.5962 16.9896 20.3033 16.6967C20.0104 16.4038 19.5355 16.4038 19.2426 16.6967L15 20.9393L10.7574 16.6967C10.4645 16.4038 9.98959 16.4038 9.6967 16.6967C9.40381 16.9896 9.40381 17.4645 9.6967 17.7574L14.4697 22.5303ZM14.25 8L14.25 22L15.75 22L15.75 8L14.25 8Z" fill="white"/>
</svg>
