<svg width="108" height="32" viewBox="0 0 108 32" fill="none" xmlns="http://www.w3.org/2000/svg">
<path d="M49.2684 12.4106V19.5227H59.1616V12.4106H49.2684ZM49.2684 12.4106V19.5227H59.1616V12.4106H49.2684ZM91.3246 0H16.6754C12.0702 0 7.90202 1.79064 4.88484 4.68698C1.86623 7.58196 0 11.5826 0 16C0 24.8361 7.46633 32 16.6754 32H91.3246C95.9298 32 100.098 30.2094 103.115 27.313C106.134 24.418 108 20.4174 108 16C108 7.16392 100.534 0 91.3246 0ZM42.384 12.0415C42.418 15.2279 41.5098 18.1814 40.566 20.3615C40.0054 21.6361 40.0764 22.1726 39.3767 23.2797H34.5515C37.4537 18.9522 37.5233 14.3891 37.5233 12.2757H24.5845V8.58553H42.384V12.0415ZM62.8798 23.3818H45.1613V8.58553H62.8798V23.3818ZM83.4155 17.7443C83.4155 21.4019 80.8623 23.4145 77.4307 23.4145H71.974C68.2202 23.4145 65.6969 21.5026 65.6969 17.7784C65.6969 16.6032 65.6969 15.1612 65.7849 13.9874C66.0191 11.0679 68.1024 8.58553 71.534 8.58553H77.4307C80.8623 8.58553 83.4155 10.7997 83.4155 14.1209V17.7443ZM76.5792 12.4773H72.5615C71.0359 12.4773 69.892 12.7782 69.5685 14.9597C69.4521 15.8992 69.4805 16.9736 69.5685 17.6109C69.7742 18.9195 70.4498 19.791 72.5615 19.791H76.2571C77.6067 19.791 79.7483 19.2545 79.7483 16.9736V15.5969C79.7483 13.4495 78.6924 12.4773 76.5792 12.4773ZM59.1616 12.4106H49.2684V19.5227H59.1616V12.4106Z" fill="#333333"/>
</svg>
