<svg width="64" height="16" viewBox="0 0 64 16" fill="none" xmlns="http://www.w3.org/2000/svg">
<path fill-rule="evenodd" clip-rule="evenodd" d="M17.2407 12.706C18.2589 10.3537 19.2387 7.16694 19.202 3.72893V0H0V3.98164H13.9583C13.9583 6.26189 13.8832 11.1853 10.7523 15.8545H15.9578C16.408 15.1421 16.5624 14.6486 16.7421 14.0745C16.8636 13.6862 16.9967 13.2609 17.2407 12.706ZM22.1982 15.9647H41.3129V0H22.1982V15.9647ZM57.0104 16C60.7124 16 63.4667 13.8285 63.4667 9.88209V5.97245C63.4667 2.38898 60.7124 0 57.0104 0H50.649C46.947 0 44.6995 2.67842 44.4469 5.82847C44.352 7.0949 44.352 8.65075 44.352 9.91867V9.91883C44.352 13.9372 47.0741 16 51.1236 16H57.0104ZM51.7575 4.19908H56.0918C58.3714 4.19908 59.5105 5.24812 59.5105 7.56511V9.05051C59.5105 11.5115 57.2002 12.0904 55.7442 12.0904H51.7575C49.4793 12.0904 48.7505 11.15 48.5286 9.73811C48.4336 9.05051 48.403 7.89128 48.5286 6.8775C48.8776 4.52378 50.1116 4.19908 51.7575 4.19908ZM37.3914 4.06406H26.5676V11.9359H37.3914V4.06406Z" fill="#333333"/>
</svg>
