<svg width="176" height="80" viewBox="0 0 176 80" fill="none" xmlns="http://www.w3.org/2000/svg">
<g filter="url(#filter0_d_320_557)">
<rect x="12" y="12" width="152" height="49" rx="12" fill="white"/>
<path d="M30.1693 45V27.5455H32.8029V35.1307H41.5046V27.5455H44.1466V45H41.5046V37.3892H32.8029V45H30.1693ZM52.5715 45.2642C51.3442 45.2642 50.2732 44.983 49.3584 44.4205C48.4437 43.858 47.7334 43.071 47.2277 42.0597C46.7221 41.0483 46.4692 39.8665 46.4692 38.5142C46.4692 37.1562 46.7221 35.9687 47.2277 34.9517C47.7334 33.9347 48.4437 33.1449 49.3584 32.5824C50.2732 32.0199 51.3442 31.7386 52.5715 31.7386C53.7988 31.7386 54.8698 32.0199 55.7846 32.5824C56.6993 33.1449 57.4096 33.9347 57.9152 34.9517C58.4209 35.9687 58.6738 37.1562 58.6738 38.5142C58.6738 39.8665 58.4209 41.0483 57.9152 42.0597C57.4096 43.071 56.6993 43.858 55.7846 44.4205C54.8698 44.983 53.7988 45.2642 52.5715 45.2642ZM52.58 43.125C53.3755 43.125 54.0346 42.9148 54.5573 42.4943C55.08 42.0739 55.4664 41.5142 55.7164 40.8153C55.9721 40.1165 56.0999 39.3466 56.0999 38.5057C56.0999 37.6705 55.9721 36.9034 55.7164 36.2045C55.4664 35.5 55.08 34.9347 54.5573 34.5085C54.0346 34.0824 53.3755 33.8693 52.58 33.8693C51.7789 33.8693 51.1141 34.0824 50.5857 34.5085C50.063 34.9347 49.6738 35.5 49.4181 36.2045C49.1681 36.9034 49.0431 37.6705 49.0431 38.5057C49.0431 39.3466 49.1681 40.1165 49.4181 40.8153C49.6738 41.5142 50.063 42.0739 50.5857 42.4943C51.1141 42.9148 51.7789 43.125 52.58 43.125ZM71.5518 31.9091L66.8046 45H64.0773L59.3217 31.9091H62.0575L65.3728 41.983H65.5092L68.816 31.9091H71.5518ZM78.4234 45.2642C77.1336 45.2642 76.0228 44.9886 75.091 44.4375C74.1649 43.8807 73.449 43.0994 72.9433 42.0938C72.4433 41.0824 72.1933 39.8977 72.1933 38.5398C72.1933 37.1989 72.4433 36.017 72.9433 34.9943C73.449 33.9716 74.1535 33.1733 75.0569 32.5994C75.966 32.0256 77.0285 31.7386 78.2444 31.7386C78.9831 31.7386 79.699 31.8608 80.3921 32.1051C81.0853 32.3494 81.7075 32.733 82.2586 33.2557C82.8098 33.7784 83.2444 34.4574 83.5626 35.2926C83.8808 36.1222 84.0399 37.1307 84.0399 38.3182V39.2216H73.6336V37.3125H81.5427C81.5427 36.642 81.4064 36.0483 81.1336 35.5312C80.8609 35.0085 80.4774 34.5966 79.9831 34.2955C79.4944 33.9943 78.9206 33.8438 78.2615 33.8438C77.5456 33.8438 76.9206 34.0199 76.3865 34.3722C75.8581 34.7187 75.449 35.1733 75.1592 35.7358C74.8751 36.2926 74.7331 36.8977 74.7331 37.5511V39.0426C74.7331 39.9176 74.8865 40.6619 75.1933 41.2756C75.5058 41.8892 75.9404 42.358 76.4973 42.6818C77.0541 43 77.7046 43.1591 78.449 43.1591C78.9319 43.1591 79.3723 43.0909 79.77 42.9545C80.1677 42.8125 80.5115 42.6023 80.8012 42.3239C81.091 42.0455 81.3126 41.7017 81.466 41.2926L83.8779 41.7273C83.6848 42.4375 83.3382 43.0597 82.8382 43.5938C82.3439 44.1222 81.7217 44.5341 80.9717 44.8295C80.2274 45.1193 79.3779 45.2642 78.4234 45.2642ZM86.1473 45V31.9091H88.6104V33.9886H88.7467C88.9854 33.2841 89.4058 32.7301 90.0081 32.3267C90.616 31.9176 91.3035 31.7131 92.0706 31.7131C92.2297 31.7131 92.4172 31.7187 92.6331 31.7301C92.8547 31.7415 93.028 31.7557 93.153 31.7727V34.2102C93.0507 34.1818 92.8689 34.1506 92.6075 34.1165C92.3462 34.0767 92.0848 34.0568 91.8234 34.0568C91.2212 34.0568 90.6842 34.1847 90.2126 34.4403C89.7467 34.6903 89.3774 35.0398 89.1047 35.4886C88.8319 35.9318 88.6956 36.4375 88.6956 37.0057V45H86.1473ZM102.818 37.2273V45H100.27V27.5455H102.784V34.0398H102.946C103.253 33.3352 103.721 32.7756 104.352 32.3608C104.983 31.946 105.807 31.7386 106.824 31.7386C107.721 31.7386 108.506 31.9233 109.176 32.2926C109.852 32.6619 110.375 33.2131 110.744 33.946C111.119 34.6733 111.307 35.5824 111.307 36.6733V45H108.758V36.9801C108.758 36.0199 108.511 35.2756 108.017 34.7472C107.523 34.2131 106.835 33.946 105.954 33.946C105.352 33.946 104.812 34.0739 104.335 34.3295C103.864 34.5852 103.491 34.9602 103.219 35.4545C102.952 35.9432 102.818 36.5341 102.818 37.2273ZM119.629 45.2642C118.34 45.2642 117.229 44.9886 116.297 44.4375C115.371 43.8807 114.655 43.0994 114.149 42.0938C113.649 41.0824 113.399 39.8977 113.399 38.5398C113.399 37.1989 113.649 36.017 114.149 34.9943C114.655 33.9716 115.359 33.1733 116.263 32.5994C117.172 32.0256 118.234 31.7386 119.45 31.7386C120.189 31.7386 120.905 31.8608 121.598 32.1051C122.291 32.3494 122.913 32.733 123.465 33.2557C124.016 33.7784 124.45 34.4574 124.769 35.2926C125.087 36.1222 125.246 37.1307 125.246 38.3182V39.2216H114.84V37.3125H122.749C122.749 36.642 122.612 36.0483 122.34 35.5312C122.067 35.0085 121.683 34.5966 121.189 34.2955C120.7 33.9943 120.126 33.8438 119.467 33.8438C118.751 33.8438 118.126 34.0199 117.592 34.3722C117.064 34.7187 116.655 35.1733 116.365 35.7358C116.081 36.2926 115.939 36.8977 115.939 37.5511V39.0426C115.939 39.9176 116.092 40.6619 116.399 41.2756C116.712 41.8892 117.146 42.358 117.703 42.6818C118.26 43 118.911 43.1591 119.655 43.1591C120.138 43.1591 120.578 43.0909 120.976 42.9545C121.374 42.8125 121.717 42.6023 122.007 42.3239C122.297 42.0455 122.519 41.7017 122.672 41.2926L125.084 41.7273C124.891 42.4375 124.544 43.0597 124.044 43.5938C123.55 44.1222 122.928 44.5341 122.178 44.8295C121.433 45.1193 120.584 45.2642 119.629 45.2642ZM127.353 45V31.9091H129.816V33.9886H129.953C130.191 33.2841 130.612 32.7301 131.214 32.3267C131.822 31.9176 132.509 31.7131 133.277 31.7131C133.436 31.7131 133.623 31.7187 133.839 31.7301C134.061 31.7415 134.234 31.7557 134.359 31.7727V34.2102C134.257 34.1818 134.075 34.1506 133.813 34.1165C133.552 34.0767 133.291 34.0568 133.029 34.0568C132.427 34.0568 131.89 34.1847 131.419 34.4403C130.953 34.6903 130.583 35.0398 130.311 35.4886C130.038 35.9318 129.902 36.4375 129.902 37.0057V45H127.353ZM141.017 45.2642C139.728 45.2642 138.617 44.9886 137.685 44.4375C136.759 43.8807 136.043 43.0994 135.537 42.0938C135.037 41.0824 134.787 39.8977 134.787 38.5398C134.787 37.1989 135.037 36.017 135.537 34.9943C136.043 33.9716 136.748 33.1733 137.651 32.5994C138.56 32.0256 139.623 31.7386 140.838 31.7386C141.577 31.7386 142.293 31.8608 142.986 32.1051C143.679 32.3494 144.302 32.733 144.853 33.2557C145.404 33.7784 145.838 34.4574 146.157 35.2926C146.475 36.1222 146.634 37.1307 146.634 38.3182V39.2216H136.228V37.3125H144.137C144.137 36.642 144 36.0483 143.728 35.5312C143.455 35.0085 143.071 34.5966 142.577 34.2955C142.088 33.9943 141.515 33.8438 140.856 33.8438C140.14 33.8438 139.515 34.0199 138.981 34.3722C138.452 34.7187 138.043 35.1733 137.753 35.7358C137.469 36.2926 137.327 36.8977 137.327 37.5511V39.0426C137.327 39.9176 137.481 40.6619 137.787 41.2756C138.1 41.8892 138.534 42.358 139.091 42.6818C139.648 43 140.299 43.1591 141.043 43.1591C141.526 43.1591 141.966 43.0909 142.364 42.9545C142.762 42.8125 143.106 42.6023 143.395 42.3239C143.685 42.0455 143.907 41.7017 144.06 41.2926L146.472 41.7273C146.279 42.4375 145.932 43.0597 145.432 43.5938C144.938 44.1222 144.316 44.5341 143.566 44.8295C142.821 45.1193 141.972 45.2642 141.017 45.2642Z" fill="#36D97D"/>
<path d="M89.5996 66.8688C88.7995 67.9347 87.2004 67.9347 86.4004 66.8688L79.1439 57.2006C78.1544 55.8822 79.095 54 80.7434 54L95.2566 54C96.905 54 97.8456 55.8822 96.8561 57.2006L89.5996 66.8688Z" fill="white"/>
</g>
<defs>
<filter id="filter0_d_320_557" x="0" y="0" width="176" height="81" filterUnits="userSpaceOnUse" color-interpolation-filters="sRGB">
<feFlood flood-opacity="0" result="BackgroundImageFix"/>
<feColorMatrix in="SourceAlpha" type="matrix" values="0 0 0 0 0 0 0 0 0 0 0 0 0 0 0 0 0 0 127 0" result="hardAlpha"/>
<feOffset/>
<feGaussianBlur stdDeviation="6"/>
<feComposite in2="hardAlpha" operator="out"/>
<feColorMatrix type="matrix" values="0 0 0 0 0.211765 0 0 0 0 0.85098 0 0 0 0 0.490196 0 0 0 0.2 0"/>
<feBlend mode="normal" in2="BackgroundImageFix" result="effect1_dropShadow_320_557"/>
<feBlend mode="normal" in="SourceGraphic" in2="effect1_dropShadow_320_557" result="shape"/>
</filter>
</defs>
</svg>
